# xmcd
#
# Track frame offsets:
#	150
#	25442
#	40346
#	52949
#	68642
#	87255
#	161479
#	182605
#	191544
#	212823
#	236482
#	265444
#
# Disc length: 4516 seconds
#
# Revision: 7
# Processed by: cddbd v1.5.2PL0 Copyright (c) Steve Scherf et al.
# Submitted via: EasyCDDAExtractor 16.0.0.1
#
DISCID=a111a20c
DTITLE=Grateful Dead [Live] - Live 70's
DYEAR=1977
DGENRE=Psychedelic Rock
TTITLE0=Estimated Prophet
TTITLE1=Dancin' in the Streets
TTITLE2=Passenger
TTITLE3=Samson and Delilah
TTITLE4=Sunrise
TTITLE5=Terrapin Station Part 1 (Lady With a Fan - Terrapin Station - Terrapin
TTITLE5=Terrapin Transit - At a Siding - Terrapin Flyer - Refrain)
TTITLE6=Peggy-O (Instrumental)
TTITLE7=The Ascent (Instrumental)
TTITLE8=Catfish John (outtake)
TTITLE9=Equinox (demo)
TTITLE10=Fire On The Mountain (demo)
TTITLE11=Dancin' In The Streets (Live 1977-05-08 Cornell U)
EXTD=
EXTT0=
EXTT1=
EXTT2=
EXTT3=
EXTT4=
EXTT5=
EXTT6=
EXTT7=
EXTT8=
EXTT9=
EXTT10=
EXTT11=
PLAYORDER=
